<?xml version="1.0" encoding="UTF-8"?>
<svg width="97px" height="94px" viewBox="0 0 97 94" version="1.1" xmlns="http://www.w3.org/2000/svg" xmlns:xlink="http://www.w3.org/1999/xlink">
    <!-- Generator: sketchtool 53.2 (72643) - https://sketchapp.com -->
    <title>69790C5B-8C37-4179-94A5-0423C4CD37F1</title>
    <desc>Created with sketchtool.</desc>
    <g id="UI_2" stroke="none" stroke-width="1" fill="none" fill-rule="evenodd">
        <g id="Homepage" transform="translate(-635.000000, -3477.000000)">
            <g id="Group-7" transform="translate(450.000000, 3455.000000)">
                <g id="building-icon" transform="translate(185.000000, 22.000000)">
                    <g id="Group-13">
                        <circle id="Oval-Copy" fill="#D8D8D8" opacity="0.36828032" cx="56" cy="41" r="41"></circle>
                        <path d="M43.3865404,39.1402744 L47.9671965,39.1402744 L47.9671965,27.7442629 L43.3865404,27.7442629 L43.3865404,39.1402744 Z M43.3865404,53.2500635 L47.9671965,53.2500635 L47.9671965,41.854052 L43.3865404,41.854052 L43.3865404,53.2500635 Z M43.3865404,67.8234821 L47.9671965,67.8234821 L47.9671965,56.4274706 L43.3865404,56.4274706 L43.3865404,67.8234821 Z M36.209672,39.1402744 L40.790328,39.1402744 L40.790328,27.7442629 L36.209672,27.7442629 L36.209672,39.1402744 Z M36.209672,53.2500635 L40.790328,53.2500635 L40.790328,41.854052 L36.209672,41.854052 L36.209672,53.2500635 Z M36.209672,67.8234821 L40.790328,67.8234821 L40.790328,56.4274706 L36.209672,56.4274706 L36.209672,67.8234821 Z M29.0328035,39.1402744 L33.6134596,39.1402744 L33.6134596,27.7442629 L29.0328035,27.7442629 L29.0328035,39.1402744 Z M29.0328035,53.2500635 L33.6134596,53.2500635 L33.6134596,41.854052 L29.0328035,41.854052 L29.0328035,53.2500635 Z M29.0328035,67.8234821 L33.6134596,67.8234821 L33.6134596,56.4274706 L29.0328035,56.4274706 L29.0328035,67.8234821 Z M25,94 L34.2769699,94 L34.2769699,79.3740368 L42.0625634,79.3740368 L42.0625634,94 L52,94 L52,21 L25,21 L25,94 Z" id="Fill-21" fill="#3C3C3C"></path>
                        <path d="M4.68972802,45.013363 L12,45.013363 L12,37.7417024 L4.68972802,37.7417024 L4.68972802,45.013363 Z M4.68972802,57.6410995 L12,57.6410995 L12,50.3694389 L4.68972802,50.3694389 L4.68972802,57.6410995 Z M4.68972802,70.5996523 L12,70.5996523 L12,63.3311424 L4.68972802,63.3311424 L4.68972802,70.5996523 Z M4.68972802,82.9280787 L12,82.9280787 L12,75.6564181 L4.68972802,75.6564181 L4.68972802,82.9280787 Z M17.9603908,82.9280787 L17.9603908,75.6564181 L24,75.6564181 L24,70.5996523 L17.9603908,70.5996523 L17.9603908,63.3311424 L24,63.3311424 L24,57.6410995 L17.9603908,57.6410995 L17.9603908,50.3694389 L24,50.3694389 L24,45.013363 L17.9603908,45.013363 L17.9603908,37.7417024 L24,37.7417024 L24,33 L0,33 L0,91 L24,91 L24,82.9280787 L17.9603908,82.9280787 L17.9603908,82.9280787 Z" id="Fill-22" fill="#3C3C3C"></path>
                        <path d="M56.5537865,87.159865 L65.4984079,87.159865 L65.4984079,80.8637585 L56.5537865,80.8637585 L56.5537865,87.159865 Z M73.8061747,87.3650397 L73.8061747,42 L54,42 L54,46.2994813 L69.0138447,46.2994813 L69.0138447,48.7585151 L54,48.7585151 L54,53.0579964 L69.0138447,53.0579964 L69.0138447,55.504781 L54,55.504781 L54,59.8042622 L69.0138447,59.8042622 L69.0138447,61.8927567 L54,61.8927567 L54,66.192238 L69.0138447,66.192238 L69.0138447,68.4981564 L54,68.4981564 L54,72.8007 L69.0138447,72.8007 L69.0138447,76.7908881 L54,76.7908881 L54,91 L77,91 L77,87.3650397 L73.8061747,87.3650397 L73.8061747,87.3650397 Z" id="Fill-23" fill="#3C3C3C"></path>
                    </g>
                </g>
            </g>
        </g>
    </g>
</svg>